<svg height="70" width="191.67451" xmlns="http://www.w3.org/2000/svg">
<rect fill="#fff" height="70" width="191.67451" x="0" y="0"/>
<path d="M14.872484 30.60403L11.474833 30.60403L11.474833 28.359903L14.872484 28.359903L14.872484 21.438763L18.752518 21.438763L18.752518 28.359903L26.009228 28.359903L26.009228 30.60403L18.752518 30.60403L18.752518 44.76091Q18.752518 47.592285,19.29782 48.389267Q19.84312 49.18625,21.311241 49.18625Q22.821308 49.18625,23.513424 48.294888Q24.205538 47.403526,24.247484 45.41108L27.162754 45.41108Q26.994968 48.452187,25.505875 49.857388Q24.016779 51.26259,20.975672 51.26259Q17.64094 51.26259,16.256712 49.78398Q14.872484 48.305374,14.872484 44.76091L14.872484 30.60403ZM51.605705 40.22903L34.97399 40.22903L34.97399 40.396816Q34.97399 44.906044,36.672817 47.202606Q38.371643 49.49917,41.685402 49.49917Q44.223152 49.49917,45.84857 48.167374Q47.47399 46.835575,48.12416 44.21393L51.228188 44.21393Q50.305367 47.88423,47.82005 49.729874Q45.334732 51.57551,41.28691 51.57551Q36.40017 51.57551,33.432465 48.35613Q30.464764 45.13675,30.464764 39.80957Q30.464764 34.524334,33.38003 31.294468Q36.295303 28.064602,41.035233 28.064602Q46.089767 28.064602,48.795303 31.179115Q51.50084 34.29363,51.605705 40.22903ZM47.054527 38.00588Q46.92869 34.10487,45.40814 32.12291Q43.887585 30.140944,41.035233 30.140944Q38.371643 30.140944,36.840603 32.133392Q35.309563 34.125843,34.97399 38.00588L47.054527 38.00588ZM64.91024 36.96393L69.58725 30.525171L66.58809 30.525171L66.58809 28.281044L75.16611 28.281044L75.16611 30.525171L72.20889 30.525171L66.231544 38.767624L73.19463 48.352356L76.1099 48.352356L76.1099 50.57551L65.81208 50.57551L65.81208 48.352356L68.64346 48.352356L63.79866 41.68289L58.932888 48.352356L61.827183 48.352356L61.827183 50.57551L53.354027 50.57551L53.354027 48.352356L56.311245 48.352356L62.45638 39.8792L55.68205 30.525171L52.934566 30.525171L52.934566 28.281044L62.896812 28.281044L62.896812 30.525171L60.233223 30.525171L64.91024 36.96393ZM81.68206 30.60403L78.28441 30.60403L78.28441 28.359903L81.68206 28.359903L81.68206 21.438763L85.56209 21.438763L85.56209 28.359903L92.8188 28.359903L92.8188 30.60403L85.56209 30.60403L85.56209 44.76091Q85.56209 47.592285,86.10739 48.389267Q86.652695 49.18625,88.12082 49.18625Q89.63088 49.18625,90.323 48.294888Q91.015114 47.403526,91.05706 45.41108L93.97233 45.41108Q93.80454 48.452187,92.315445 49.857388Q90.826355 51.26259,87.78525 51.26259Q84.450516 51.26259,83.066284 49.78398Q81.68206 48.305374,81.68206 44.76091L81.68206 30.60403ZM96.77097 37.569633L107.50923 37.569633L107.50923 40.841446L96.77097 40.841446L96.77097 37.569633ZM110.9589 49.729874L110.9589 44.528526L113.18206 44.528526Q113.265945 47.024334,114.74456 48.26175Q116.22317 49.49917,119.11746 49.49917Q121.71813 49.49917,123.08138 48.523914Q124.44464 47.54866,124.44464 45.682053Q124.44464 44.21393,123.44842 43.312088Q122.452194 42.41024,119.2433 41.382553L116.45387 40.438763Q113.58054 39.515945,112.290695 38.131714Q111.00085 36.74749,111.00085 34.608227Q111.00085 31.546144,113.24498 29.805374Q115.489105 28.064602,119.45303 28.064602Q121.214775 28.064602,123.165276 28.52601Q125.11578 28.987421,127.19212 29.868294L127.19212 34.734062L124.96897 34.734062Q124.88508 32.57383,123.4589 31.357388Q122.03273 30.140944,119.57887 30.140944Q117.14598 30.140944,115.89808 31.000843Q114.65018 31.860743,114.65018 33.580544Q114.65018 34.98574,115.59397 35.835155Q116.537766 36.68457,119.36914 37.56544L122.43122 38.50923Q125.59817 39.494972,126.99288 40.97358Q128.38759 42.452187,128.38759 44.780205Q128.38759 47.94715,125.965195 49.76133Q123.54279 51.57551,119.28525 51.57551Q117.12501 51.57551,115.06964 51.114098Q113.014275 50.652687,110.9589 49.729874ZM140.50504 50.57551L132.30453 30.525171L129.76678 30.525171L129.76678 28.281044L140.02266 28.281044L140.02266 30.525171L136.45721 30.525171L142.7282 45.85655L148.99918 30.525171L145.66443 30.525171L145.66443 28.281044L154.03273 28.281044L154.03273 30.525171L151.53693 30.525171L143.33641 50.57551L140.50504 50.57551ZM177.10992 30.91695L177.10992 50.484905Q177.10992 55.287758,174.4673 57.898914Q171.82469 60.51007,166.93794 60.51007Q164.73576 60.51007,162.72234 60.11158Q160.70892 59.713097,158.86328 58.916115L158.86328 54.239098L160.87671 54.239098Q161.25421 56.420307,162.65942 57.427017Q164.06462 58.43373,166.68626 58.43373Q170.08392 58.43373,171.66739 56.514687Q173.25087 54.595642,173.25087 50.484905L173.25087 47.48574Q172.11832 49.58306,170.36705 50.579285Q168.6158 51.57551,166.0361 51.57551Q161.92535 51.57551,159.31421 48.314182Q156.70305 45.052856,156.70305 39.80957Q156.70305 34.56628,159.30371 31.315441Q161.90439 28.064602,166.0361 28.064602Q168.6158 28.064602,170.36705 29.060827Q172.11832 30.05705,173.25087 32.154366L173.25087 28.672823L180.8012 28.672823L180.8012 30.91695L177.10992 30.91695ZM173.25087 38.718964Q173.25087 34.71309,171.70934 32.594803Q170.16782 30.476515,167.23157 30.476515Q164.25339 30.476515,162.73282 32.82551Q161.21227 35.1745,161.21227 39.80957Q161.21227 44.42366,162.73282 46.79363Q164.25339 49.163597,167.23157 49.163597Q170.16782 49.163597,171.70934 47.055794Q173.25087 44.94799,173.25087 40.921146L173.25087 38.718964Z" fill="#000"/>
</svg>